<svg xmlns="http://www.w3.org/2000/svg" viewBox="0 0 48 48" width="48" height="48" shape-rendering="crispEdges">
<title>NV favicon</title>
<path fill="#000000" d="M5 0h1v1h-1zM6 0h1v1h-1zM7 0h1v1h-1zM8 0h1v1h-1zM9 0h1v1h-1zM10 0h1v1h-1zM11 0h1v1h-1zM12 0h1v1h-1zM13 0h1v1h-1zM14 0h1v1h-1zM15 0h1v1h-1zM16 0h1v1h-1zM17 0h1v1h-1zM18 0h1v1h-1zM19 0h1v1h-1zM20 0h1v1h-1zM21 0h1v1h-1zM22 0h1v1h-1zM23 0h1v1h-1zM24 0h1v1h-1zM25 0h1v1h-1zM26 0h1v1h-1zM27 0h1v1h-1zM28 0h1v1h-1zM29 0h1v1h-1zM30 0h1v1h-1zM31 0h1v1h-1zM32 0h1v1h-1zM33 0h1v1h-1zM34 0h1v1h-1zM35 0h1v1h-1zM36 0h1v1h-1zM37 0h1v1h-1zM38 0h1v1h-1zM39 0h1v1h-1zM40 0h1v1h-1zM41 0h1v1h-1zM42 0h1v1h-1zM3 1h1v1h-1zM4 1h1v1h-1zM5 1h1v1h-1zM6 1h1v1h-1zM7 1h1v1h-1zM8 1h1v1h-1zM9 1h1v1h-1zM10 1h1v1h-1zM11 1h1v1h-1zM12 1h1v1h-1zM13 1h1v1h-1zM14 1h1v1h-1zM15 1h1v1h-1zM16 1h1v1h-1zM17 1h1v1h-1zM18 1h1v1h-1zM19 1h1v1h-1zM20 1h1v1h-1zM21 1h1v1h-1zM22 1h1v1h-1zM23 1h1v1h-1zM24 1h1v1h-1zM25 1h1v1h-1zM26 1h1v1h-1zM27 1h1v1h-1zM28 1h1v1h-1zM29 1h1v1h-1zM30 1h1v1h-1zM31 1h1v1h-1zM32 1h1v1h-1zM33 1h1v1h-1zM34 1h1v1h-1zM35 1h1v1h-1zM36 1h1v1h-1zM37 1h1v1h-1zM38 1h1v1h-1zM39 1h1v1h-1zM40 1h1v1h-1zM41 1h1v1h-1zM42 1h1v1h-1zM43 1h1v1h-1zM44 1h1v1h-1zM2 2h1v1h-1zM3 2h1v1h-1zM4 2h1v1h-1zM5 2h1v1h-1zM6 2h1v1h-1zM7 2h1v1h-1zM8 2h1v1h-1zM9 2h1v1h-1zM10 2h1v1h-1zM11 2h1v1h-1zM12 2h1v1h-1zM13 2h1v1h-1zM14 2h1v1h-1zM15 2h1v1h-1zM16 2h1v1h-1zM17 2h1v1h-1zM18 2h1v1h-1zM19 2h1v1h-1zM20 2h1v1h-1zM21 2h1v1h-1zM22 2h1v1h-1zM23 2h1v1h-1zM24 2h1v1h-1zM25 2h1v1h-1zM26 2h1v1h-1zM27 2h1v1h-1zM28 2h1v1h-1zM29 2h1v1h-1zM30 2h1v1h-1zM31 2h1v1h-1zM32 2h1v1h-1zM33 2h1v1h-1zM34 2h1v1h-1zM35 2h1v1h-1zM36 2h1v1h-1zM37 2h1v1h-1zM38 2h1v1h-1zM39 2h1v1h-1zM40 2h1v1h-1zM41 2h1v1h-1zM42 2h1v1h-1zM43 2h1v1h-1zM44 2h1v1h-1zM45 2h1v1h-1zM1 3h1v1h-1zM2 3h1v1h-1zM3 3h1v1h-1zM4 3h1v1h-1zM5 3h1v1h-1zM6 3h1v1h-1zM7 3h1v1h-1zM8 3h1v1h-1zM9 3h1v1h-1zM10 3h1v1h-1zM11 3h1v1h-1zM12 3h1v1h-1zM13 3h1v1h-1zM14 3h1v1h-1zM15 3h1v1h-1zM16 3h1v1h-1zM17 3h1v1h-1zM18 3h1v1h-1zM19 3h1v1h-1zM20 3h1v1h-1zM21 3h1v1h-1zM22 3h1v1h-1zM23 3h1v1h-1zM24 3h1v1h-1zM25 3h1v1h-1zM26 3h1v1h-1zM27 3h1v1h-1zM28 3h1v1h-1zM29 3h1v1h-1zM30 3h1v1h-1zM31 3h1v1h-1zM32 3h1v1h-1zM33 3h1v1h-1zM34 3h1v1h-1zM35 3h1v1h-1zM36 3h1v1h-1zM37 3h1v1h-1zM38 3h1v1h-1zM39 3h1v1h-1zM40 3h1v1h-1zM41 3h1v1h-1zM42 3h1v1h-1zM43 3h1v1h-1zM44 3h1v1h-1zM45 3h1v1h-1zM46 3h1v1h-1zM1 4h1v1h-1zM2 4h1v1h-1zM3 4h1v1h-1zM4 4h1v1h-1zM5 4h1v1h-1zM6 4h1v1h-1zM7 4h1v1h-1zM8 4h1v1h-1zM9 4h1v1h-1zM10 4h1v1h-1zM11 4h1v1h-1zM12 4h1v1h-1zM13 4h1v1h-1zM14 4h1v1h-1zM15 4h1v1h-1zM16 4h1v1h-1zM17 4h1v1h-1zM18 4h1v1h-1zM19 4h1v1h-1zM20 4h1v1h-1zM21 4h1v1h-1zM22 4h1v1h-1zM23 4h1v1h-1zM24 4h1v1h-1zM25 4h1v1h-1zM26 4h1v1h-1zM27 4h1v1h-1zM28 4h1v1h-1zM29 4h1v1h-1zM30 4h1v1h-1zM31 4h1v1h-1zM32 4h1v1h-1zM33 4h1v1h-1zM34 4h1v1h-1zM35 4h1v1h-1zM36 4h1v1h-1zM37 4h1v1h-1zM38 4h1v1h-1zM39 4h1v1h-1zM40 4h1v1h-1zM41 4h1v1h-1zM42 4h1v1h-1zM43 4h1v1h-1zM44 4h1v1h-1zM45 4h1v1h-1zM46 4h1v1h-1zM0 5h1v1h-1zM1 5h1v1h-1zM2 5h1v1h-1zM3 5h1v1h-1zM4 5h1v1h-1zM5 5h1v1h-1zM6 5h1v1h-1zM7 5h1v1h-1zM8 5h1v1h-1zM9 5h1v1h-1zM10 5h1v1h-1zM11 5h1v1h-1zM12 5h1v1h-1zM13 5h1v1h-1zM14 5h1v1h-1zM15 5h1v1h-1zM16 5h1v1h-1zM17 5h1v1h-1zM18 5h1v1h-1zM19 5h1v1h-1zM20 5h1v1h-1zM21 5h1v1h-1zM22 5h1v1h-1zM23 5h1v1h-1zM24 5h1v1h-1zM25 5h1v1h-1zM26 5h1v1h-1zM27 5h1v1h-1zM28 5h1v1h-1zM29 5h1v1h-1zM30 5h1v1h-1zM31 5h1v1h-1zM32 5h1v1h-1zM33 5h1v1h-1zM34 5h1v1h-1zM35 5h1v1h-1zM36 5h1v1h-1zM37 5h1v1h-1zM38 5h1v1h-1zM39 5h1v1h-1zM40 5h1v1h-1zM41 5h1v1h-1zM42 5h1v1h-1zM43 5h1v1h-1zM44 5h1v1h-1zM45 5h1v1h-1zM46 5h1v1h-1zM47 5h1v1h-1zM0 6h1v1h-1zM1 6h1v1h-1zM2 6h1v1h-1zM3 6h1v1h-1zM4 6h1v1h-1zM5 6h1v1h-1zM6 6h1v1h-1zM7 6h1v1h-1zM8 6h1v1h-1zM9 6h1v1h-1zM10 6h1v1h-1zM11 6h1v1h-1zM12 6h1v1h-1zM13 6h1v1h-1zM14 6h1v1h-1zM15 6h1v1h-1zM16 6h1v1h-1zM17 6h1v1h-1zM18 6h1v1h-1zM19 6h1v1h-1zM20 6h1v1h-1zM21 6h1v1h-1zM22 6h1v1h-1zM23 6h1v1h-1zM24 6h1v1h-1zM25 6h1v1h-1zM26 6h1v1h-1zM27 6h1v1h-1zM28 6h1v1h-1zM29 6h1v1h-1zM30 6h1v1h-1zM31 6h1v1h-1zM32 6h1v1h-1zM33 6h1v1h-1zM34 6h1v1h-1zM35 6h1v1h-1zM36 6h1v1h-1zM37 6h1v1h-1zM38 6h1v1h-1zM39 6h1v1h-1zM40 6h1v1h-1zM41 6h1v1h-1zM42 6h1v1h-1zM43 6h1v1h-1zM44 6h1v1h-1zM45 6h1v1h-1zM46 6h1v1h-1zM47 6h1v1h-1zM0 7h1v1h-1zM1 7h1v1h-1zM2 7h1v1h-1zM3 7h1v1h-1zM4 7h1v1h-1zM5 7h1v1h-1zM6 7h1v1h-1zM7 7h1v1h-1zM8 7h1v1h-1zM9 7h1v1h-1zM10 7h1v1h-1zM11 7h1v1h-1zM12 7h1v1h-1zM13 7h1v1h-1zM14 7h1v1h-1zM15 7h1v1h-1zM16 7h1v1h-1zM17 7h1v1h-1zM18 7h1v1h-1zM19 7h1v1h-1zM20 7h1v1h-1zM21 7h1v1h-1zM22 7h1v1h-1zM23 7h1v1h-1zM24 7h1v1h-1zM25 7h1v1h-1zM26 7h1v1h-1zM27 7h1v1h-1zM28 7h1v1h-1zM29 7h1v1h-1zM30 7h1v1h-1zM31 7h1v1h-1zM32 7h1v1h-1zM33 7h1v1h-1zM34 7h1v1h-1zM35 7h1v1h-1zM36 7h1v1h-1zM37 7h1v1h-1zM38 7h1v1h-1zM39 7h1v1h-1zM40 7h1v1h-1zM41 7h1v1h-1zM42 7h1v1h-1zM43 7h1v1h-1zM44 7h1v1h-1zM45 7h1v1h-1zM46 7h1v1h-1zM47 7h1v1h-1zM0 8h1v1h-1zM1 8h1v1h-1zM2 8h1v1h-1zM3 8h1v1h-1zM4 8h1v1h-1zM5 8h1v1h-1zM6 8h1v1h-1zM7 8h1v1h-1zM8 8h1v1h-1zM9 8h1v1h-1zM10 8h1v1h-1zM11 8h1v1h-1zM12 8h1v1h-1zM13 8h1v1h-1zM14 8h1v1h-1zM15 8h1v1h-1zM16 8h1v1h-1zM17 8h1v1h-1zM18 8h1v1h-1zM19 8h1v1h-1zM20 8h1v1h-1zM21 8h1v1h-1zM22 8h1v1h-1zM23 8h1v1h-1zM24 8h1v1h-1zM25 8h1v1h-1zM26 8h1v1h-1zM27 8h1v1h-1zM28 8h1v1h-1zM29 8h1v1h-1zM30 8h1v1h-1zM31 8h1v1h-1zM32 8h1v1h-1zM33 8h1v1h-1zM34 8h1v1h-1zM35 8h1v1h-1zM36 8h1v1h-1zM37 8h1v1h-1zM38 8h1v1h-1zM39 8h1v1h-1zM40 8h1v1h-1zM41 8h1v1h-1zM42 8h1v1h-1zM43 8h1v1h-1zM44 8h1v1h-1zM45 8h1v1h-1zM46 8h1v1h-1zM47 8h1v1h-1zM0 9h1v1h-1zM1 9h1v1h-1zM2 9h1v1h-1zM3 9h1v1h-1zM4 9h1v1h-1zM5 9h1v1h-1zM6 9h1v1h-1zM7 9h1v1h-1zM8 9h1v1h-1zM9 9h1v1h-1zM10 9h1v1h-1zM11 9h1v1h-1zM12 9h1v1h-1zM13 9h1v1h-1zM14 9h1v1h-1zM15 9h1v1h-1zM16 9h1v1h-1zM17 9h1v1h-1zM18 9h1v1h-1zM19 9h1v1h-1zM20 9h1v1h-1zM21 9h1v1h-1zM22 9h1v1h-1zM23 9h1v1h-1zM24 9h1v1h-1zM25 9h1v1h-1zM26 9h1v1h-1zM27 9h1v1h-1zM28 9h1v1h-1zM29 9h1v1h-1zM30 9h1v1h-1zM31 9h1v1h-1zM32 9h1v1h-1zM33 9h1v1h-1zM34 9h1v1h-1zM35 9h1v1h-1zM36 9h1v1h-1zM37 9h1v1h-1zM38 9h1v1h-1zM39 9h1v1h-1zM40 9h1v1h-1zM41 9h1v1h-1zM42 9h1v1h-1zM43 9h1v1h-1zM44 9h1v1h-1zM45 9h1v1h-1zM46 9h1v1h-1zM47 9h1v1h-1zM0 10h1v1h-1zM1 10h1v1h-1zM2 10h1v1h-1zM3 10h1v1h-1zM4 10h1v1h-1zM5 10h1v1h-1zM6 10h1v1h-1zM7 10h1v1h-1zM8 10h1v1h-1zM9 10h1v1h-1zM10 10h1v1h-1zM11 10h1v1h-1zM12 10h1v1h-1zM13 10h1v1h-1zM14 10h1v1h-1zM15 10h1v1h-1zM16 10h1v1h-1zM17 10h1v1h-1zM18 10h1v1h-1zM19 10h1v1h-1zM20 10h1v1h-1zM21 10h1v1h-1zM22 10h1v1h-1zM23 10h1v1h-1zM24 10h1v1h-1zM25 10h1v1h-1zM26 10h1v1h-1zM27 10h1v1h-1zM28 10h1v1h-1zM29 10h1v1h-1zM30 10h1v1h-1zM31 10h1v1h-1zM32 10h1v1h-1zM33 10h1v1h-1zM34 10h1v1h-1zM35 10h1v1h-1zM36 10h1v1h-1zM37 10h1v1h-1zM38 10h1v1h-1zM39 10h1v1h-1zM40 10h1v1h-1zM41 10h1v1h-1zM42 10h1v1h-1zM43 10h1v1h-1zM44 10h1v1h-1zM45 10h1v1h-1zM46 10h1v1h-1zM47 10h1v1h-1zM0 11h1v1h-1zM1 11h1v1h-1zM2 11h1v1h-1zM3 11h1v1h-1zM4 11h1v1h-1zM5 11h1v1h-1zM6 11h1v1h-1zM7 11h1v1h-1zM8 11h1v1h-1zM9 11h1v1h-1zM10 11h1v1h-1zM11 11h1v1h-1zM12 11h1v1h-1zM13 11h1v1h-1zM14 11h1v1h-1zM15 11h1v1h-1zM16 11h1v1h-1zM17 11h1v1h-1zM18 11h1v1h-1zM19 11h1v1h-1zM20 11h1v1h-1zM21 11h1v1h-1zM22 11h1v1h-1zM23 11h1v1h-1zM24 11h1v1h-1zM25 11h1v1h-1zM26 11h1v1h-1zM27 11h1v1h-1zM28 11h1v1h-1zM29 11h1v1h-1zM30 11h1v1h-1zM31 11h1v1h-1zM32 11h1v1h-1zM33 11h1v1h-1zM34 11h1v1h-1zM35 11h1v1h-1zM36 11h1v1h-1zM37 11h1v1h-1zM38 11h1v1h-1zM39 11h1v1h-1zM40 11h1v1h-1zM41 11h1v1h-1zM42 11h1v1h-1zM43 11h1v1h-1zM44 11h1v1h-1zM45 11h1v1h-1zM46 11h1v1h-1zM47 11h1v1h-1zM0 12h1v1h-1zM11 12h1v1h-1zM12 12h1v1h-1zM13 12h1v1h-1zM14 12h1v1h-1zM35 12h1v1h-1zM36 12h1v1h-1zM37 12h1v1h-1zM0 13h1v1h-1zM11 13h1v1h-1zM12 13h1v1h-1zM13 13h1v1h-1zM14 13h1v1h-1zM35 13h1v1h-1zM36 13h1v1h-1zM37 13h1v1h-1zM0 14h1v1h-1zM12 14h1v1h-1zM13 14h1v1h-1zM14 14h1v1h-1zM35 14h1v1h-1zM36 14h1v1h-1zM37 14h1v1h-1zM0 15h1v1h-1zM1 15h1v1h-1zM2 15h1v1h-1zM12 15h1v1h-1zM13 15h1v1h-1zM14 15h1v1h-1zM15 15h1v1h-1zM16 15h1v1h-1zM17 15h1v1h-1zM21 15h1v1h-1zM22 15h1v1h-1zM23 15h1v1h-1zM24 15h1v1h-1zM25 15h1v1h-1zM33 15h1v1h-1zM34 15h1v1h-1zM35 15h1v1h-1zM36 15h1v1h-1zM37 15h1v1h-1zM38 15h1v1h-1zM39 15h1v1h-1zM45 15h1v1h-1zM46 15h1v1h-1zM47 15h1v1h-1zM0 16h1v1h-1zM1 16h1v1h-1zM2 16h1v1h-1zM13 16h1v1h-1zM14 16h1v1h-1zM15 16h1v1h-1zM16 16h1v1h-1zM17 16h1v1h-1zM21 16h1v1h-1zM22 16h1v1h-1zM23 16h1v1h-1zM24 16h1v1h-1zM25 16h1v1h-1zM34 16h1v1h-1zM35 16h1v1h-1zM36 16h1v1h-1zM37 16h1v1h-1zM38 16h1v1h-1zM39 16h1v1h-1zM44 16h1v1h-1zM45 16h1v1h-1zM46 16h1v1h-1zM47 16h1v1h-1zM0 17h1v1h-1zM1 17h1v1h-1zM2 17h1v1h-1zM13 17h1v1h-1zM14 17h1v1h-1zM15 17h1v1h-1zM16 17h1v1h-1zM17 17h1v1h-1zM21 17h1v1h-1zM22 17h1v1h-1zM23 17h1v1h-1zM24 17h1v1h-1zM25 17h1v1h-1zM26 17h1v1h-1zM34 17h1v1h-1zM35 17h1v1h-1zM36 17h1v1h-1zM37 17h1v1h-1zM38 17h1v1h-1zM44 17h1v1h-1zM45 17h1v1h-1zM46 17h1v1h-1zM47 17h1v1h-1zM0 18h1v1h-1zM1 18h1v1h-1zM2 18h1v1h-1zM14 18h1v1h-1zM15 18h1v1h-1zM16 18h1v1h-1zM17 18h1v1h-1zM21 18h1v1h-1zM22 18h1v1h-1zM23 18h1v1h-1zM24 18h1v1h-1zM25 18h1v1h-1zM26 18h1v1h-1zM35 18h1v1h-1zM36 18h1v1h-1zM37 18h1v1h-1zM38 18h1v1h-1zM43 18h1v1h-1zM44 18h1v1h-1zM45 18h1v1h-1zM46 18h1v1h-1zM47 18h1v1h-1zM0 19h1v1h-1zM1 19h1v1h-1zM2 19h1v1h-1zM15 19h1v1h-1zM16 19h1v1h-1zM17 19h1v1h-1zM21 19h1v1h-1zM22 19h1v1h-1zM23 19h1v1h-1zM24 19h1v1h-1zM25 19h1v1h-1zM26 19h1v1h-1zM35 19h1v1h-1zM36 19h1v1h-1zM37 19h1v1h-1zM38 19h1v1h-1zM43 19h1v1h-1zM44 19h1v1h-1zM45 19h1v1h-1zM46 19h1v1h-1zM47 19h1v1h-1zM0 20h1v1h-1zM1 20h1v1h-1zM2 20h1v1h-1zM15 20h1v1h-1zM16 20h1v1h-1zM17 20h1v1h-1zM21 20h1v1h-1zM22 20h1v1h-1zM23 20h1v1h-1zM24 20h1v1h-1zM25 20h1v1h-1zM26 20h1v1h-1zM35 20h1v1h-1zM36 20h1v1h-1zM37 20h1v1h-1zM38 20h1v1h-1zM42 20h1v1h-1zM43 20h1v1h-1zM44 20h1v1h-1zM45 20h1v1h-1zM46 20h1v1h-1zM47 20h1v1h-1zM0 21h1v1h-1zM1 21h1v1h-1zM2 21h1v1h-1zM7 21h1v1h-1zM15 21h1v1h-1zM16 21h1v1h-1zM17 21h1v1h-1zM22 21h1v1h-1zM23 21h1v1h-1zM24 21h1v1h-1zM25 21h1v1h-1zM26 21h1v1h-1zM27 21h1v1h-1zM36 21h1v1h-1zM37 21h1v1h-1zM42 21h1v1h-1zM43 21h1v1h-1zM44 21h1v1h-1zM45 21h1v1h-1zM46 21h1v1h-1zM47 21h1v1h-1zM0 22h1v1h-1zM1 22h1v1h-1zM7 22h1v1h-1zM23 22h1v1h-1zM24 22h1v1h-1zM25 22h1v1h-1zM26 22h1v1h-1zM36 22h1v1h-1zM37 22h1v1h-1zM43 22h1v1h-1zM44 22h1v1h-1zM45 22h1v1h-1zM46 22h1v1h-1zM47 22h1v1h-1zM0 23h1v1h-1zM1 23h1v1h-1zM7 23h1v1h-1zM8 23h1v1h-1zM23 23h1v1h-1zM24 23h1v1h-1zM25 23h1v1h-1zM26 23h1v1h-1zM36 23h1v1h-1zM37 23h1v1h-1zM43 23h1v1h-1zM44 23h1v1h-1zM45 23h1v1h-1zM46 23h1v1h-1zM47 23h1v1h-1zM0 24h1v1h-1zM1 24h1v1h-1zM2 24h1v1h-1zM7 24h1v1h-1zM8 24h1v1h-1zM17 24h1v1h-1zM22 24h1v1h-1zM23 24h1v1h-1zM24 24h1v1h-1zM25 24h1v1h-1zM26 24h1v1h-1zM27 24h1v1h-1zM28 24h1v1h-1zM42 24h1v1h-1zM43 24h1v1h-1zM44 24h1v1h-1zM45 24h1v1h-1zM46 24h1v1h-1zM47 24h1v1h-1zM0 25h1v1h-1zM1 25h1v1h-1zM2 25h1v1h-1zM7 25h1v1h-1zM8 25h1v1h-1zM9 25h1v1h-1zM21 25h1v1h-1zM22 25h1v1h-1zM23 25h1v1h-1zM24 25h1v1h-1zM25 25h1v1h-1zM26 25h1v1h-1zM27 25h1v1h-1zM28 25h1v1h-1zM29 25h1v1h-1zM41 25h1v1h-1zM42 25h1v1h-1zM43 25h1v1h-1zM44 25h1v1h-1zM45 25h1v1h-1zM46 25h1v1h-1zM47 25h1v1h-1zM0 26h1v1h-1zM1 26h1v1h-1zM2 26h1v1h-1zM7 26h1v1h-1zM8 26h1v1h-1zM9 26h1v1h-1zM21 26h1v1h-1zM22 26h1v1h-1zM23 26h1v1h-1zM24 26h1v1h-1zM25 26h1v1h-1zM26 26h1v1h-1zM27 26h1v1h-1zM28 26h1v1h-1zM29 26h1v1h-1zM41 26h1v1h-1zM42 26h1v1h-1zM43 26h1v1h-1zM44 26h1v1h-1zM45 26h1v1h-1zM46 26h1v1h-1zM47 26h1v1h-1zM0 27h1v1h-1zM1 27h1v1h-1zM2 27h1v1h-1zM7 27h1v1h-1zM8 27h1v1h-1zM9 27h1v1h-1zM10 27h1v1h-1zM21 27h1v1h-1zM22 27h1v1h-1zM23 27h1v1h-1zM24 27h1v1h-1zM25 27h1v1h-1zM26 27h1v1h-1zM27 27h1v1h-1zM28 27h1v1h-1zM29 27h1v1h-1zM40 27h1v1h-1zM41 27h1v1h-1zM42 27h1v1h-1zM43 27h1v1h-1zM44 27h1v1h-1zM45 27h1v1h-1zM46 27h1v1h-1zM47 27h1v1h-1zM0 28h1v1h-1zM1 28h1v1h-1zM2 28h1v1h-1zM7 28h1v1h-1zM8 28h1v1h-1zM9 28h1v1h-1zM10 28h1v1h-1zM11 28h1v1h-1zM21 28h1v1h-1zM22 28h1v1h-1zM23 28h1v1h-1zM24 28h1v1h-1zM25 28h1v1h-1zM26 28h1v1h-1zM27 28h1v1h-1zM28 28h1v1h-1zM29 28h1v1h-1zM30 28h1v1h-1zM40 28h1v1h-1zM41 28h1v1h-1zM42 28h1v1h-1zM43 28h1v1h-1zM44 28h1v1h-1zM45 28h1v1h-1zM46 28h1v1h-1zM47 28h1v1h-1zM0 29h1v1h-1zM1 29h1v1h-1zM2 29h1v1h-1zM7 29h1v1h-1zM8 29h1v1h-1zM9 29h1v1h-1zM10 29h1v1h-1zM11 29h1v1h-1zM21 29h1v1h-1zM22 29h1v1h-1zM23 29h1v1h-1zM24 29h1v1h-1zM25 29h1v1h-1zM26 29h1v1h-1zM27 29h1v1h-1zM28 29h1v1h-1zM29 29h1v1h-1zM30 29h1v1h-1zM39 29h1v1h-1zM40 29h1v1h-1zM41 29h1v1h-1zM42 29h1v1h-1zM43 29h1v1h-1zM44 29h1v1h-1zM45 29h1v1h-1zM46 29h1v1h-1zM47 29h1v1h-1zM0 30h1v1h-1zM1 30h1v1h-1zM2 30h1v1h-1zM7 30h1v1h-1zM8 30h1v1h-1zM9 30h1v1h-1zM10 30h1v1h-1zM11 30h1v1h-1zM12 30h1v1h-1zM22 30h1v1h-1zM23 30h1v1h-1zM24 30h1v1h-1zM25 30h1v1h-1zM26 30h1v1h-1zM27 30h1v1h-1zM28 30h1v1h-1zM29 30h1v1h-1zM30 30h1v1h-1zM31 30h1v1h-1zM39 30h1v1h-1zM40 30h1v1h-1zM41 30h1v1h-1zM42 30h1v1h-1zM43 30h1v1h-1zM44 30h1v1h-1zM45 30h1v1h-1zM46 30h1v1h-1zM47 30h1v1h-1zM0 31h1v1h-1zM1 31h1v1h-1zM2 31h1v1h-1zM7 31h1v1h-1zM8 31h1v1h-1zM9 31h1v1h-1zM10 31h1v1h-1zM11 31h1v1h-1zM12 31h1v1h-1zM22 31h1v1h-1zM23 31h1v1h-1zM24 31h1v1h-1zM25 31h1v1h-1zM26 31h1v1h-1zM27 31h1v1h-1zM28 31h1v1h-1zM29 31h1v1h-1zM30 31h1v1h-1zM31 31h1v1h-1zM32 31h1v1h-1zM39 31h1v1h-1zM40 31h1v1h-1zM41 31h1v1h-1zM42 31h1v1h-1zM43 31h1v1h-1zM44 31h1v1h-1zM45 31h1v1h-1zM46 31h1v1h-1zM47 31h1v1h-1zM0 32h1v1h-1zM1 32h1v1h-1zM2 32h1v1h-1zM8 32h1v1h-1zM9 32h1v1h-1zM10 32h1v1h-1zM11 32h1v1h-1zM12 32h1v1h-1zM13 32h1v1h-1zM22 32h1v1h-1zM23 32h1v1h-1zM24 32h1v1h-1zM25 32h1v1h-1zM26 32h1v1h-1zM27 32h1v1h-1zM28 32h1v1h-1zM29 32h1v1h-1zM30 32h1v1h-1zM31 32h1v1h-1zM32 32h1v1h-1zM39 32h1v1h-1zM40 32h1v1h-1zM41 32h1v1h-1zM42 32h1v1h-1zM43 32h1v1h-1zM44 32h1v1h-1zM45 32h1v1h-1zM46 32h1v1h-1zM47 32h1v1h-1zM10 33h1v1h-1zM11 33h1v1h-1zM12 33h1v1h-1zM13 33h1v1h-1zM14 33h1v1h-1zM24 33h1v1h-1zM25 33h1v1h-1zM26 33h1v1h-1zM27 33h1v1h-1zM28 33h1v1h-1zM29 33h1v1h-1zM30 33h1v1h-1zM31 33h1v1h-1zM32 33h1v1h-1zM38 33h1v1h-1zM39 33h1v1h-1zM40 33h1v1h-1zM41 33h1v1h-1zM42 33h1v1h-1zM43 33h1v1h-1zM44 33h1v1h-1zM45 33h1v1h-1zM46 33h1v1h-1zM47 33h1v1h-1zM10 34h1v1h-1zM11 34h1v1h-1zM12 34h1v1h-1zM13 34h1v1h-1zM14 34h1v1h-1zM24 34h1v1h-1zM25 34h1v1h-1zM26 34h1v1h-1zM27 34h1v1h-1zM28 34h1v1h-1zM29 34h1v1h-1zM30 34h1v1h-1zM31 34h1v1h-1zM32 34h1v1h-1zM38 34h1v1h-1zM39 34h1v1h-1zM40 34h1v1h-1zM41 34h1v1h-1zM42 34h1v1h-1zM43 34h1v1h-1zM44 34h1v1h-1zM45 34h1v1h-1zM46 34h1v1h-1zM47 34h1v1h-1zM0 35h1v1h-1zM10 35h1v1h-1zM11 35h1v1h-1zM12 35h1v1h-1zM13 35h1v1h-1zM14 35h1v1h-1zM24 35h1v1h-1zM25 35h1v1h-1zM26 35h1v1h-1zM27 35h1v1h-1zM28 35h1v1h-1zM29 35h1v1h-1zM30 35h1v1h-1zM31 35h1v1h-1zM32 35h1v1h-1zM33 35h1v1h-1zM37 35h1v1h-1zM38 35h1v1h-1zM39 35h1v1h-1zM40 35h1v1h-1zM41 35h1v1h-1zM42 35h1v1h-1zM43 35h1v1h-1zM44 35h1v1h-1zM45 35h1v1h-1zM46 35h1v1h-1zM47 35h1v1h-1zM0 36h1v1h-1zM1 36h1v1h-1zM2 36h1v1h-1zM3 36h1v1h-1zM4 36h1v1h-1zM5 36h1v1h-1zM6 36h1v1h-1zM7 36h1v1h-1zM8 36h1v1h-1zM9 36h1v1h-1zM10 36h1v1h-1zM11 36h1v1h-1zM12 36h1v1h-1zM13 36h1v1h-1zM14 36h1v1h-1zM15 36h1v1h-1zM16 36h1v1h-1zM17 36h1v1h-1zM18 36h1v1h-1zM19 36h1v1h-1zM20 36h1v1h-1zM21 36h1v1h-1zM22 36h1v1h-1zM23 36h1v1h-1zM24 36h1v1h-1zM25 36h1v1h-1zM26 36h1v1h-1zM27 36h1v1h-1zM28 36h1v1h-1zM29 36h1v1h-1zM30 36h1v1h-1zM31 36h1v1h-1zM32 36h1v1h-1zM33 36h1v1h-1zM34 36h1v1h-1zM35 36h1v1h-1zM36 36h1v1h-1zM37 36h1v1h-1zM38 36h1v1h-1zM39 36h1v1h-1zM40 36h1v1h-1zM41 36h1v1h-1zM42 36h1v1h-1zM43 36h1v1h-1zM44 36h1v1h-1zM45 36h1v1h-1zM46 36h1v1h-1zM47 36h1v1h-1zM0 37h1v1h-1zM1 37h1v1h-1zM2 37h1v1h-1zM3 37h1v1h-1zM4 37h1v1h-1zM5 37h1v1h-1zM6 37h1v1h-1zM7 37h1v1h-1zM8 37h1v1h-1zM9 37h1v1h-1zM10 37h1v1h-1zM11 37h1v1h-1zM12 37h1v1h-1zM13 37h1v1h-1zM14 37h1v1h-1zM15 37h1v1h-1zM16 37h1v1h-1zM17 37h1v1h-1zM18 37h1v1h-1zM19 37h1v1h-1zM20 37h1v1h-1zM21 37h1v1h-1zM22 37h1v1h-1zM23 37h1v1h-1zM24 37h1v1h-1zM25 37h1v1h-1zM26 37h1v1h-1zM27 37h1v1h-1zM28 37h1v1h-1zM29 37h1v1h-1zM30 37h1v1h-1zM31 37h1v1h-1zM32 37h1v1h-1zM33 37h1v1h-1zM34 37h1v1h-1zM35 37h1v1h-1zM36 37h1v1h-1zM37 37h1v1h-1zM38 37h1v1h-1zM39 37h1v1h-1zM40 37h1v1h-1zM41 37h1v1h-1zM42 37h1v1h-1zM43 37h1v1h-1zM44 37h1v1h-1zM45 37h1v1h-1zM46 37h1v1h-1zM47 37h1v1h-1zM0 38h1v1h-1zM1 38h1v1h-1zM2 38h1v1h-1zM3 38h1v1h-1zM4 38h1v1h-1zM5 38h1v1h-1zM6 38h1v1h-1zM7 38h1v1h-1zM8 38h1v1h-1zM9 38h1v1h-1zM10 38h1v1h-1zM11 38h1v1h-1zM12 38h1v1h-1zM13 38h1v1h-1zM14 38h1v1h-1zM15 38h1v1h-1zM16 38h1v1h-1zM17 38h1v1h-1zM18 38h1v1h-1zM19 38h1v1h-1zM20 38h1v1h-1zM21 38h1v1h-1zM22 38h1v1h-1zM23 38h1v1h-1zM24 38h1v1h-1zM25 38h1v1h-1zM26 38h1v1h-1zM27 38h1v1h-1zM28 38h1v1h-1zM29 38h1v1h-1zM30 38h1v1h-1zM31 38h1v1h-1zM32 38h1v1h-1zM33 38h1v1h-1zM34 38h1v1h-1zM35 38h1v1h-1zM36 38h1v1h-1zM37 38h1v1h-1zM38 38h1v1h-1zM39 38h1v1h-1zM40 38h1v1h-1zM41 38h1v1h-1zM42 38h1v1h-1zM43 38h1v1h-1zM44 38h1v1h-1zM45 38h1v1h-1zM46 38h1v1h-1zM47 38h1v1h-1zM0 39h1v1h-1zM1 39h1v1h-1zM2 39h1v1h-1zM3 39h1v1h-1zM4 39h1v1h-1zM5 39h1v1h-1zM6 39h1v1h-1zM7 39h1v1h-1zM8 39h1v1h-1zM9 39h1v1h-1zM10 39h1v1h-1zM11 39h1v1h-1zM12 39h1v1h-1zM13 39h1v1h-1zM14 39h1v1h-1zM15 39h1v1h-1zM16 39h1v1h-1zM17 39h1v1h-1zM18 39h1v1h-1zM19 39h1v1h-1zM20 39h1v1h-1zM21 39h1v1h-1zM22 39h1v1h-1zM23 39h1v1h-1zM24 39h1v1h-1zM25 39h1v1h-1zM26 39h1v1h-1zM27 39h1v1h-1zM28 39h1v1h-1zM29 39h1v1h-1zM30 39h1v1h-1zM31 39h1v1h-1zM32 39h1v1h-1zM33 39h1v1h-1zM34 39h1v1h-1zM35 39h1v1h-1zM36 39h1v1h-1zM37 39h1v1h-1zM38 39h1v1h-1zM39 39h1v1h-1zM40 39h1v1h-1zM41 39h1v1h-1zM42 39h1v1h-1zM43 39h1v1h-1zM44 39h1v1h-1zM45 39h1v1h-1zM46 39h1v1h-1zM47 39h1v1h-1zM0 40h1v1h-1zM1 40h1v1h-1zM2 40h1v1h-1zM3 40h1v1h-1zM4 40h1v1h-1zM5 40h1v1h-1zM6 40h1v1h-1zM7 40h1v1h-1zM8 40h1v1h-1zM9 40h1v1h-1zM10 40h1v1h-1zM11 40h1v1h-1zM12 40h1v1h-1zM13 40h1v1h-1zM14 40h1v1h-1zM15 40h1v1h-1zM16 40h1v1h-1zM17 40h1v1h-1zM18 40h1v1h-1zM19 40h1v1h-1zM20 40h1v1h-1zM21 40h1v1h-1zM22 40h1v1h-1zM23 40h1v1h-1zM24 40h1v1h-1zM25 40h1v1h-1zM26 40h1v1h-1zM27 40h1v1h-1zM28 40h1v1h-1zM29 40h1v1h-1zM30 40h1v1h-1zM31 40h1v1h-1zM32 40h1v1h-1zM33 40h1v1h-1zM34 40h1v1h-1zM35 40h1v1h-1zM36 40h1v1h-1zM37 40h1v1h-1zM38 40h1v1h-1zM39 40h1v1h-1zM40 40h1v1h-1zM41 40h1v1h-1zM42 40h1v1h-1zM43 40h1v1h-1zM44 40h1v1h-1zM45 40h1v1h-1zM46 40h1v1h-1zM47 40h1v1h-1zM0 41h1v1h-1zM1 41h1v1h-1zM2 41h1v1h-1zM3 41h1v1h-1zM4 41h1v1h-1zM5 41h1v1h-1zM6 41h1v1h-1zM7 41h1v1h-1zM8 41h1v1h-1zM9 41h1v1h-1zM10 41h1v1h-1zM11 41h1v1h-1zM12 41h1v1h-1zM13 41h1v1h-1zM14 41h1v1h-1zM15 41h1v1h-1zM16 41h1v1h-1zM17 41h1v1h-1zM18 41h1v1h-1zM19 41h1v1h-1zM20 41h1v1h-1zM21 41h1v1h-1zM22 41h1v1h-1zM23 41h1v1h-1zM24 41h1v1h-1zM25 41h1v1h-1zM26 41h1v1h-1zM27 41h1v1h-1zM28 41h1v1h-1zM29 41h1v1h-1zM30 41h1v1h-1zM31 41h1v1h-1zM32 41h1v1h-1zM33 41h1v1h-1zM34 41h1v1h-1zM35 41h1v1h-1zM36 41h1v1h-1zM37 41h1v1h-1zM38 41h1v1h-1zM39 41h1v1h-1zM40 41h1v1h-1zM41 41h1v1h-1zM42 41h1v1h-1zM43 41h1v1h-1zM44 41h1v1h-1zM45 41h1v1h-1zM46 41h1v1h-1zM47 41h1v1h-1zM0 42h1v1h-1zM1 42h1v1h-1zM2 42h1v1h-1zM3 42h1v1h-1zM4 42h1v1h-1zM5 42h1v1h-1zM6 42h1v1h-1zM7 42h1v1h-1zM8 42h1v1h-1zM9 42h1v1h-1zM10 42h1v1h-1zM11 42h1v1h-1zM12 42h1v1h-1zM13 42h1v1h-1zM14 42h1v1h-1zM15 42h1v1h-1zM16 42h1v1h-1zM17 42h1v1h-1zM18 42h1v1h-1zM19 42h1v1h-1zM20 42h1v1h-1zM21 42h1v1h-1zM22 42h1v1h-1zM23 42h1v1h-1zM24 42h1v1h-1zM25 42h1v1h-1zM26 42h1v1h-1zM27 42h1v1h-1zM28 42h1v1h-1zM29 42h1v1h-1zM30 42h1v1h-1zM31 42h1v1h-1zM32 42h1v1h-1zM33 42h1v1h-1zM34 42h1v1h-1zM35 42h1v1h-1zM36 42h1v1h-1zM37 42h1v1h-1zM38 42h1v1h-1zM39 42h1v1h-1zM40 42h1v1h-1zM41 42h1v1h-1zM42 42h1v1h-1zM43 42h1v1h-1zM44 42h1v1h-1zM45 42h1v1h-1zM46 42h1v1h-1zM47 42h1v1h-1zM1 43h1v1h-1zM2 43h1v1h-1zM3 43h1v1h-1zM4 43h1v1h-1zM5 43h1v1h-1zM6 43h1v1h-1zM7 43h1v1h-1zM8 43h1v1h-1zM9 43h1v1h-1zM10 43h1v1h-1zM11 43h1v1h-1zM12 43h1v1h-1zM13 43h1v1h-1zM14 43h1v1h-1zM15 43h1v1h-1zM16 43h1v1h-1zM17 43h1v1h-1zM18 43h1v1h-1zM19 43h1v1h-1zM20 43h1v1h-1zM21 43h1v1h-1zM22 43h1v1h-1zM23 43h1v1h-1zM24 43h1v1h-1zM25 43h1v1h-1zM26 43h1v1h-1zM27 43h1v1h-1zM28 43h1v1h-1zM29 43h1v1h-1zM30 43h1v1h-1zM31 43h1v1h-1zM32 43h1v1h-1zM33 43h1v1h-1zM34 43h1v1h-1zM35 43h1v1h-1zM36 43h1v1h-1zM37 43h1v1h-1zM38 43h1v1h-1zM39 43h1v1h-1zM40 43h1v1h-1zM41 43h1v1h-1zM42 43h1v1h-1zM43 43h1v1h-1zM44 43h1v1h-1zM45 43h1v1h-1zM46 43h1v1h-1zM1 44h1v1h-1zM2 44h1v1h-1zM3 44h1v1h-1zM4 44h1v1h-1zM5 44h1v1h-1zM6 44h1v1h-1zM7 44h1v1h-1zM8 44h1v1h-1zM9 44h1v1h-1zM10 44h1v1h-1zM11 44h1v1h-1zM12 44h1v1h-1zM13 44h1v1h-1zM14 44h1v1h-1zM15 44h1v1h-1zM16 44h1v1h-1zM17 44h1v1h-1zM18 44h1v1h-1zM19 44h1v1h-1zM20 44h1v1h-1zM21 44h1v1h-1zM22 44h1v1h-1zM23 44h1v1h-1zM24 44h1v1h-1zM25 44h1v1h-1zM26 44h1v1h-1zM27 44h1v1h-1zM28 44h1v1h-1zM29 44h1v1h-1zM30 44h1v1h-1zM31 44h1v1h-1zM32 44h1v1h-1zM33 44h1v1h-1zM34 44h1v1h-1zM35 44h1v1h-1zM36 44h1v1h-1zM37 44h1v1h-1zM38 44h1v1h-1zM39 44h1v1h-1zM40 44h1v1h-1zM41 44h1v1h-1zM42 44h1v1h-1zM43 44h1v1h-1zM44 44h1v1h-1zM45 44h1v1h-1zM46 44h1v1h-1zM2 45h1v1h-1zM3 45h1v1h-1zM4 45h1v1h-1zM5 45h1v1h-1zM6 45h1v1h-1zM7 45h1v1h-1zM8 45h1v1h-1zM9 45h1v1h-1zM10 45h1v1h-1zM11 45h1v1h-1zM12 45h1v1h-1zM13 45h1v1h-1zM14 45h1v1h-1zM15 45h1v1h-1zM16 45h1v1h-1zM17 45h1v1h-1zM18 45h1v1h-1zM19 45h1v1h-1zM20 45h1v1h-1zM21 45h1v1h-1zM22 45h1v1h-1zM23 45h1v1h-1zM24 45h1v1h-1zM25 45h1v1h-1zM26 45h1v1h-1zM27 45h1v1h-1zM28 45h1v1h-1zM29 45h1v1h-1zM30 45h1v1h-1zM31 45h1v1h-1zM32 45h1v1h-1zM33 45h1v1h-1zM34 45h1v1h-1zM35 45h1v1h-1zM36 45h1v1h-1zM37 45h1v1h-1zM38 45h1v1h-1zM39 45h1v1h-1zM40 45h1v1h-1zM41 45h1v1h-1zM42 45h1v1h-1zM43 45h1v1h-1zM44 45h1v1h-1zM45 45h1v1h-1zM3 46h1v1h-1zM4 46h1v1h-1zM5 46h1v1h-1zM6 46h1v1h-1zM7 46h1v1h-1zM8 46h1v1h-1zM9 46h1v1h-1zM10 46h1v1h-1zM11 46h1v1h-1zM12 46h1v1h-1zM13 46h1v1h-1zM14 46h1v1h-1zM15 46h1v1h-1zM16 46h1v1h-1zM17 46h1v1h-1zM18 46h1v1h-1zM19 46h1v1h-1zM20 46h1v1h-1zM21 46h1v1h-1zM22 46h1v1h-1zM23 46h1v1h-1zM24 46h1v1h-1zM25 46h1v1h-1zM26 46h1v1h-1zM27 46h1v1h-1zM28 46h1v1h-1zM29 46h1v1h-1zM30 46h1v1h-1zM31 46h1v1h-1zM32 46h1v1h-1zM33 46h1v1h-1zM34 46h1v1h-1zM35 46h1v1h-1zM36 46h1v1h-1zM37 46h1v1h-1zM38 46h1v1h-1zM39 46h1v1h-1zM40 46h1v1h-1zM41 46h1v1h-1zM42 46h1v1h-1zM43 46h1v1h-1zM44 46h1v1h-1zM5 47h1v1h-1zM6 47h1v1h-1zM7 47h1v1h-1zM8 47h1v1h-1zM9 47h1v1h-1zM10 47h1v1h-1zM11 47h1v1h-1zM12 47h1v1h-1zM13 47h1v1h-1zM14 47h1v1h-1zM15 47h1v1h-1zM16 47h1v1h-1zM17 47h1v1h-1zM18 47h1v1h-1zM19 47h1v1h-1zM20 47h1v1h-1zM21 47h1v1h-1zM22 47h1v1h-1zM23 47h1v1h-1zM24 47h1v1h-1zM25 47h1v1h-1zM26 47h1v1h-1zM27 47h1v1h-1zM28 47h1v1h-1zM29 47h1v1h-1zM30 47h1v1h-1zM31 47h1v1h-1zM32 47h1v1h-1zM33 47h1v1h-1zM34 47h1v1h-1zM35 47h1v1h-1zM36 47h1v1h-1zM37 47h1v1h-1zM38 47h1v1h-1zM39 47h1v1h-1zM40 47h1v1h-1zM41 47h1v1h-1zM42 47h1v1h-1z"/>
<path fill="#42dca3" d="M5 13h1v1h-1zM6 13h1v1h-1zM7 13h1v1h-1zM8 13h1v1h-1zM19 13h1v1h-1zM20 13h1v1h-1zM27 13h1v1h-1zM28 13h1v1h-1zM29 13h1v1h-1zM30 13h1v1h-1zM42 13h1v1h-1zM43 13h1v1h-1zM5 14h1v1h-1zM6 14h1v1h-1zM7 14h1v1h-1zM8 14h1v1h-1zM27 14h1v1h-1zM28 14h1v1h-1zM29 14h1v1h-1zM30 14h1v1h-1zM42 14h1v1h-1zM5 15h1v1h-1zM6 15h1v1h-1zM7 15h1v1h-1zM8 15h1v1h-1zM9 15h1v1h-1zM28 15h1v1h-1zM29 15h1v1h-1zM30 15h1v1h-1zM31 15h1v1h-1zM5 16h1v1h-1zM6 16h1v1h-1zM7 16h1v1h-1zM9 16h1v1h-1zM10 16h1v1h-1zM30 16h1v1h-1zM31 16h1v1h-1zM5 17h1v1h-1zM7 17h1v1h-1zM10 17h1v1h-1zM31 17h1v1h-1zM32 17h1v1h-1zM5 18h1v1h-1zM11 18h1v1h-1zM31 18h1v1h-1zM32 18h1v1h-1zM41 18h1v1h-1zM5 19h1v1h-1zM11 19h1v1h-1zM32 19h1v1h-1zM5 20h1v1h-1zM12 20h1v1h-1zM32 20h1v1h-1zM40 20h1v1h-1zM5 21h1v1h-1zM12 21h1v1h-1zM33 21h1v1h-1zM40 21h1v1h-1zM5 22h1v1h-1zM13 22h1v1h-1zM19 22h1v1h-1zM33 22h1v1h-1zM39 22h1v1h-1zM40 22h1v1h-1zM5 23h1v1h-1zM13 23h1v1h-1zM14 23h1v1h-1zM19 23h1v1h-1zM20 23h1v1h-1zM33 23h1v1h-1zM39 23h1v1h-1zM5 24h1v1h-1zM14 24h1v1h-1zM33 24h1v1h-1zM34 24h1v1h-1zM5 25h1v1h-1zM34 25h1v1h-1zM5 26h1v1h-1zM15 26h1v1h-1zM34 26h1v1h-1zM35 26h1v1h-1zM5 27h1v1h-1zM16 27h1v1h-1zM35 27h1v1h-1zM5 28h1v1h-1zM16 28h1v1h-1zM35 28h1v1h-1zM36 28h1v1h-1zM37 28h1v1h-1zM5 29h1v1h-1zM16 29h1v1h-1zM17 29h1v1h-1zM36 29h1v1h-1zM37 29h1v1h-1zM5 30h1v1h-1zM17 30h1v1h-1zM18 30h1v1h-1zM19 30h1v1h-1zM20 30h1v1h-1zM36 30h1v1h-1zM5 31h1v1h-1zM16 31h1v1h-1zM17 31h1v1h-1zM18 31h1v1h-1zM19 31h1v1h-1zM20 31h1v1h-1zM36 31h1v1h-1zM5 32h1v1h-1zM16 32h1v1h-1zM17 32h1v1h-1zM18 32h1v1h-1zM19 32h1v1h-1zM20 32h1v1h-1zM35 32h1v1h-1zM5 33h1v1h-1zM17 33h1v1h-1zM18 33h1v1h-1zM19 33h1v1h-1zM20 33h1v1h-1zM35 33h1v1h-1z"/>
<path fill="#010302" d="M15 14h1v1h-1zM3 15h1v1h-1zM3 16h1v1h-1zM3 17h1v1h-1zM3 18h1v1h-1zM34 18h1v1h-1zM3 19h1v1h-1zM3 20h1v1h-1zM3 25h1v1h-1zM3 26h1v1h-1zM10 26h1v1h-1zM3 27h1v1h-1zM3 28h1v1h-1zM3 29h1v1h-1zM3 30h1v1h-1zM3 31h1v1h-1zM37 34h1v1h-1zM9 35h1v1h-1z"/>
<path fill="#000000" fill-opacity="0.972549" d="M2 1h1v1h-1zM45 1h1v1h-1zM1 2h1v1h-1zM46 2h1v1h-1zM0 4h1v1h-1zM47 4h1v1h-1zM0 43h1v1h-1zM47 43h1v1h-1zM1 45h1v1h-1zM46 45h1v1h-1zM2 46h1v1h-1zM45 46h1v1h-1z"/>
<path fill="#237657" d="M4 15h1v1h-1zM4 16h1v1h-1zM4 17h1v1h-1zM4 18h1v1h-1zM4 19h1v1h-1zM4 20h1v1h-1zM4 26h1v1h-1zM4 27h1v1h-1zM4 28h1v1h-1zM4 29h1v1h-1zM4 30h1v1h-1zM4 31h1v1h-1z"/>
<path fill="#247a5b" d="M6 20h1v1h-1zM6 21h1v1h-1zM6 22h1v1h-1zM6 23h1v1h-1zM6 24h1v1h-1zM6 25h1v1h-1zM6 26h1v1h-1zM6 27h1v1h-1zM6 28h1v1h-1zM6 29h1v1h-1zM6 30h1v1h-1zM6 31h1v1h-1z"/>
<path fill="#000101" d="M27 20h1v1h-1zM16 22h1v1h-1zM16 23h1v1h-1zM36 24h1v1h-1zM40 26h1v1h-1zM38 32h1v1h-1zM0 33h1v1h-1zM0 34h1v1h-1zM33 34h1v1h-1zM15 35h1v1h-1z"/>
<path fill="#3cc794" d="M19 15h1v1h-1zM19 16h1v1h-1zM19 17h1v1h-1zM19 18h1v1h-1zM19 19h1v1h-1zM19 20h1v1h-1zM19 25h1v1h-1zM19 26h1v1h-1zM19 27h1v1h-1zM19 28h1v1h-1z"/>
<path fill="#091e16" d="M18 15h1v1h-1zM18 16h1v1h-1zM18 17h1v1h-1zM18 18h1v1h-1zM18 19h1v1h-1zM18 20h1v1h-1zM18 25h1v1h-1zM36 25h1v1h-1zM18 26h1v1h-1z"/>
<path fill="#000000" fill-opacity="0.0588235" d="M1 0h1v1h-1zM46 0h1v1h-1zM0 1h1v1h-1zM47 1h1v1h-1zM0 46h1v1h-1zM47 46h1v1h-1zM1 47h1v1h-1zM46 47h1v1h-1z"/>
<path fill="#000000" fill-opacity="0.788235" d="M3 0h1v1h-1zM44 0h1v1h-1zM0 3h1v1h-1zM47 3h1v1h-1zM0 44h1v1h-1zM47 44h1v1h-1zM3 47h1v1h-1zM44 47h1v1h-1z"/>
<path fill="#010403" d="M38 12h1v1h-1zM47 13h1v1h-1zM38 21h1v1h-1zM2 23h1v1h-1zM27 23h1v1h-1zM41 24h1v1h-1zM21 30h1v1h-1zM23 35h1v1h-1z"/>
<path fill="#41d9a1" d="M9 14h1v1h-1zM31 14h1v1h-1zM42 15h1v1h-1zM28 16h1v1h-1zM30 17h1v1h-1zM15 27h1v1h-1zM4 33h1v1h-1z"/>
<path fill="#020705" d="M1 14h1v1h-1zM43 17h1v1h-1zM3 21h1v1h-1zM21 21h1v1h-1zM27 22h1v1h-1zM7 32h1v1h-1z"/>
<path fill="#35b283" d="M20 15h1v1h-1zM20 16h1v1h-1zM20 17h1v1h-1zM20 18h1v1h-1zM20 19h1v1h-1zM20 20h1v1h-1z"/>
<path fill="#41daa1" d="M41 17h1v1h-1zM32 21h1v1h-1zM20 22h1v1h-1zM15 25h1v1h-1zM38 27h1v1h-1zM15 31h1v1h-1z"/>
<path fill="#42dba2" d="M27 15h1v1h-1zM13 21h1v1h-1zM38 26h1v1h-1zM17 28h1v1h-1zM16 30h1v1h-1zM35 31h1v1h-1z"/>
<path fill="#071812" d="M25 14h1v1h-1zM15 22h1v1h-1zM37 24h1v1h-1zM8 35h1v1h-1zM22 35h1v1h-1z"/>
<path fill="#309f76" d="M5 12h1v1h-1zM17 13h1v1h-1zM40 13h1v1h-1zM45 13h1v1h-1zM11 21h1v1h-1z"/>
<path fill="#3bc592" d="M9 17h1v1h-1zM7 18h1v1h-1zM29 21h1v1h-1zM11 25h1v1h-1zM37 30h1v1h-1z"/>
<path fill="#3cc894" d="M28 18h1v1h-1zM11 24h1v1h-1zM15 24h1v1h-1zM35 30h1v1h-1zM15 32h1v1h-1z"/>
<path fill="#40d49d" d="M41 13h1v1h-1zM33 20h1v1h-1zM14 25h1v1h-1zM35 29h1v1h-1zM36 32h1v1h-1z"/>
<path fill="#000000" fill-opacity="0.364706" d="M2 0h1v1h-1zM45 0h1v1h-1zM2 47h1v1h-1zM45 47h1v1h-1z"/>
<path fill="#000000" fill-opacity="0.368627" d="M0 2h1v1h-1zM47 2h1v1h-1zM0 45h1v1h-1zM47 45h1v1h-1z"/>
<path fill="#000000" fill-opacity="0.588235" d="M1 1h1v1h-1zM46 1h1v1h-1zM1 46h1v1h-1zM46 46h1v1h-1z"/>
<path fill="#000000" fill-opacity="0.968627" d="M4 0h1v1h-1zM43 0h1v1h-1zM4 47h1v1h-1zM43 47h1v1h-1z"/>
<path fill="#010201" d="M10 12h1v1h-1zM38 14h1v1h-1zM14 19h1v1h-1zM30 27h1v1h-1z"/>
<path fill="#010202" d="M44 15h1v1h-1zM39 17h1v1h-1zM42 23h1v1h-1zM31 29h1v1h-1z"/>
<path fill="#040c09" d="M2 14h1v1h-1zM46 14h1v1h-1zM12 29h1v1h-1zM3 32h1v1h-1z"/>
<path fill="#05100c" d="M33 14h1v1h-1zM39 14h1v1h-1zM40 14h1v1h-1zM15 34h1v1h-1z"/>
<path fill="#1a5740" d="M28 20h1v1h-1zM34 20h1v1h-1zM10 21h1v1h-1zM23 33h1v1h-1z"/>
<path fill="#298865" d="M2 12h1v1h-1zM16 12h1v1h-1zM11 16h1v1h-1zM34 30h1v1h-1z"/>
<path fill="#3cc995" d="M42 16h1v1h-1zM32 22h1v1h-1zM12 26h1v1h-1zM36 27h1v1h-1z"/>
<path fill="#3ed09a" d="M29 20h1v1h-1zM40 23h1v1h-1zM38 25h1v1h-1zM34 32h1v1h-1z"/>
<path fill="#40d79f" d="M18 13h1v1h-1zM10 18h1v1h-1zM39 24h1v1h-1zM6 33h1v1h-1z"/>
<path fill="#000100" d="M47 12h1v1h-1zM47 14h1v1h-1zM12 16h1v1h-1z"/>
<path fill="#030a07" d="M33 16h1v1h-1zM35 21h1v1h-1zM17 25h1v1h-1z"/>
<path fill="#05110c" d="M17 14h1v1h-1zM45 14h1v1h-1zM39 18h1v1h-1z"/>
<path fill="#06130e" d="M24 14h1v1h-1zM14 20h1v1h-1zM6 35h1v1h-1z"/>
<path fill="#081c15" d="M3 14h1v1h-1zM22 22h1v1h-1zM5 35h1v1h-1z"/>
<path fill="#0b241b" d="M11 15h1v1h-1zM34 19h1v1h-1zM37 33h1v1h-1z"/>
<path fill="#31a379" d="M9 22h1v1h-1zM21 23h1v1h-1zM18 34h1v1h-1z"/>
<path fill="#32a67b" d="M31 12h1v1h-1zM9 20h1v1h-1zM6 34h1v1h-1z"/>
<path fill="#33ab7f" d="M42 17h1v1h-1zM12 18h1v1h-1zM31 20h1v1h-1z"/>
<path fill="#34ac80" d="M33 29h1v1h-1zM4 34h1v1h-1zM20 34h1v1h-1z"/>
<path fill="#36b485" d="M29 12h1v1h-1zM25 13h1v1h-1zM14 29h1v1h-1z"/>
<path fill="#39bd8c" d="M32 12h1v1h-1zM31 25h1v1h-1zM17 34h1v1h-1z"/>
<path fill="#39be8d" d="M3 12h1v1h-1zM20 26h1v1h-1zM21 34h1v1h-1z"/>
<path fill="#3ac18f" d="M14 22h1v1h-1zM33 25h1v1h-1zM5 34h1v1h-1z"/>
<path fill="#3ecd98" d="M40 19h1v1h-1zM19 21h1v1h-1zM12 22h1v1h-1z"/>
<path fill="#40d59e" d="M28 17h1v1h-1zM31 19h1v1h-1zM19 29h1v1h-1z"/>
<path fill="#41d8a0" d="M4 13h1v1h-1zM20 29h1v1h-1zM34 31h1v1h-1z"/>
<path fill="#41daa2" d="M31 13h1v1h-1zM6 17h1v1h-1zM34 23h1v1h-1z"/>
<path fill="#020604" d="M13 31h1v1h-1zM1 35h1v1h-1z"/>
<path fill="#020706" d="M26 16h1v1h-1zM8 22h1v1h-1z"/>
<path fill="#020806" d="M21 24h1v1h-1zM11 27h1v1h-1z"/>
<path fill="#030a08" d="M34 14h1v1h-1zM3 24h1v1h-1z"/>
<path fill="#030b08" d="M40 15h1v1h-1zM38 31h1v1h-1z"/>
<path fill="#040d0a" d="M13 18h1v1h-1zM21 31h1v1h-1z"/>
<path fill="#040e0a" d="M16 14h1v1h-1zM33 33h1v1h-1z"/>
<path fill="#05110d" d="M38 13h1v1h-1zM42 19h1v1h-1z"/>
<path fill="#05120d" d="M23 14h1v1h-1zM18 35h1v1h-1z"/>
<path fill="#06140f" d="M30 26h1v1h-1zM34 35h1v1h-1z"/>
<path fill="#061510" d="M29 24h1v1h-1zM20 35h1v1h-1z"/>
<path fill="#081b14" d="M17 35h1v1h-1zM21 35h1v1h-1z"/>
<path fill="#081c14" d="M35 22h1v1h-1zM19 35h1v1h-1z"/>
<path fill="#091d15" d="M34 12h1v1h-1zM22 23h1v1h-1z"/>
<path fill="#0c291e" d="M39 19h1v1h-1zM18 21h1v1h-1z"/>
<path fill="#0d2c20" d="M12 24h1v1h-1zM18 24h1v1h-1z"/>
<path fill="#0e3023" d="M17 22h1v1h-1zM17 23h1v1h-1z"/>
<path fill="#0f3326" d="M31 23h1v1h-1zM16 24h1v1h-1z"/>
<path fill="#123a2b" d="M46 12h1v1h-1zM40 16h1v1h-1z"/>
<path fill="#154533" d="M9 19h1v1h-1zM9 34h1v1h-1z"/>
<path fill="#174c39" d="M9 12h1v1h-1zM13 26h1v1h-1z"/>
<path fill="#19543e" d="M14 21h1v1h-1zM34 34h1v1h-1z"/>
<path fill="#1b5942" d="M3 22h1v1h-1zM37 32h1v1h-1z"/>
<path fill="#1c5e46" d="M46 13h1v1h-1zM8 21h1v1h-1z"/>
<path fill="#1e654b" d="M27 17h1v1h-1zM32 26h1v1h-1z"/>
<path fill="#217154" d="M3 23h1v1h-1zM11 26h1v1h-1z"/>
<path fill="#227154" d="M31 21h1v1h-1zM2 33h1v1h-1z"/>
<path fill="#227254" d="M41 22h1v1h-1zM8 33h1v1h-1z"/>
<path fill="#257c5c" d="M27 12h1v1h-1zM30 12h1v1h-1z"/>
<path fill="#288462" d="M39 12h1v1h-1zM15 23h1v1h-1z"/>
<path fill="#288663" d="M39 26h1v1h-1zM32 29h1v1h-1z"/>
<path fill="#2a8c68" d="M2 13h1v1h-1zM15 30h1v1h-1z"/>
<path fill="#2c926d" d="M41 12h1v1h-1zM36 34h1v1h-1z"/>
<path fill="#2d946e" d="M22 13h1v1h-1zM23 13h1v1h-1z"/>
<path fill="#2d966f" d="M16 13h1v1h-1zM34 33h1v1h-1z"/>
<path fill="#2f9d75" d="M6 18h1v1h-1zM17 27h1v1h-1z"/>
<path fill="#31a479" d="M26 14h1v1h-1zM10 22h1v1h-1z"/>
<path fill="#31a57a" d="M24 13h1v1h-1zM15 28h1v1h-1z"/>
<path fill="#32a87c" d="M29 19h1v1h-1zM31 26h1v1h-1z"/>
<path fill="#36b687" d="M22 12h1v1h-1zM20 25h1v1h-1z"/>
<path fill="#37b687" d="M37 27h1v1h-1zM8 34h1v1h-1z"/>
<path fill="#37b788" d="M8 16h1v1h-1zM2 34h1v1h-1z"/>
<path fill="#37b989" d="M40 12h1v1h-1zM3 34h1v1h-1z"/>
<path fill="#38bc8b" d="M27 16h1v1h-1zM20 21h1v1h-1z"/>
<path fill="#39bf8e" d="M38 24h1v1h-1zM39 25h1v1h-1z"/>
<path fill="#39c08e" d="M8 20h1v1h-1zM19 34h1v1h-1z"/>
<path fill="#3ac390" d="M29 23h1v1h-1zM32 28h1v1h-1z"/>
<path fill="#3ac391" d="M4 22h1v1h-1zM13 28h1v1h-1z"/>
<path fill="#3dcb96" d="M41 16h1v1h-1zM34 27h1v1h-1z"/>
<path fill="#3ecf99" d="M11 20h1v1h-1zM9 21h1v1h-1z"/>
<path fill="#3fd29c" d="M20 14h1v1h-1zM35 34h1v1h-1z"/>
<path fill="#41d7a0" d="M4 23h1v1h-1zM16 33h1v1h-1z"/>
<path fill="#000202" d="M39 28h1v1h-1z"/>
<path fill="#020504" d="M11 14h1v1h-1z"/>
<path fill="#020605" d="M42 22h1v1h-1z"/>
<path fill="#020907" d="M2 22h1v1h-1z"/>
<path fill="#030906" d="M9 24h1v1h-1z"/>
<path fill="#030c09" d="M27 19h1v1h-1z"/>
<path fill="#040d09" d="M22 14h1v1h-1z"/>
<path fill="#050f0b" d="M16 35h1v1h-1z"/>
<path fill="#050f0c" d="M15 12h1v1h-1z"/>
<path fill="#06140e" d="M14 32h1v1h-1z"/>
<path fill="#06150f" d="M4 35h1v1h-1z"/>
<path fill="#071510" d="M1 12h1v1h-1z"/>
<path fill="#071912" d="M2 35h1v1h-1z"/>
<path fill="#081913" d="M3 35h1v1h-1z"/>
<path fill="#081a13" d="M7 35h1v1h-1z"/>
<path fill="#081a14" d="M15 13h1v1h-1z"/>
<path fill="#091d16" d="M38 30h1v1h-1z"/>
<path fill="#091f17" d="M40 25h1v1h-1z"/>
<path fill="#0a2017" d="M7 20h1v1h-1z"/>
<path fill="#0a2018" d="M27 18h1v1h-1z"/>
<path fill="#0a221a" d="M32 30h1v1h-1z"/>
<path fill="#0b231a" d="M18 27h1v1h-1z"/>
<path fill="#0c261c" d="M31 28h1v1h-1z"/>
<path fill="#0c271c" d="M10 13h1v1h-1z"/>
<path fill="#0c281e" d="M21 14h1v1h-1z"/>
<path fill="#0c2a1f" d="M33 27h1v1h-1z"/>
<path fill="#0d2a1f" d="M28 21h1v1h-1z"/>
<path fill="#0d2a20" d="M36 35h1v1h-1z"/>
<path fill="#0d2b20" d="M21 32h1v1h-1z"/>
<path fill="#0d2d21" d="M32 25h1v1h-1z"/>
<path fill="#0e2d21" d="M33 32h1v1h-1z"/>
<path fill="#0e2e22" d="M17 26h1v1h-1z"/>
<path fill="#0e2f22" d="M10 25h1v1h-1z"/>
<path fill="#0e3024" d="M9 23h1v1h-1z"/>
<path fill="#0e3124" d="M44 14h1v1h-1z"/>
<path fill="#0f3024" d="M39 27h1v1h-1z"/>
<path fill="#103527" d="M43 16h1v1h-1z"/>
<path fill="#103728" d="M38 22h1v1h-1z"/>
<path fill="#103729" d="M31 22h1v1h-1z"/>
<path fill="#11392a" d="M1 13h1v1h-1z"/>
<path fill="#113a2b" d="M12 17h1v1h-1z"/>
<path fill="#123c2c" d="M11 22h1v1h-1z"/>
<path fill="#123c2d" d="M13 30h1v1h-1z"/>
<path fill="#133f2f" d="M30 19h1v1h-1z"/>
<path fill="#134030" d="M29 17h1v1h-1z"/>
<path fill="#144130" d="M32 14h1v1h-1z"/>
<path fill="#144231" d="M14 28h1v1h-1z"/>
<path fill="#144432" d="M30 20h1v1h-1z"/>
<path fill="#144433" d="M12 28h1v1h-1z"/>
<path fill="#154534" d="M30 25h1v1h-1z"/>
<path fill="#154633" d="M41 21h1v1h-1z"/>
<path fill="#154634" d="M1 33h1v1h-1z"/>
<path fill="#164735" d="M26 15h1v1h-1z"/>
<path fill="#164835" d="M33 17h1v1h-1z"/>
<path fill="#164836" d="M28 23h1v1h-1z"/>
<path fill="#164936" d="M1 34h1v1h-1z"/>
<path fill="#164b37" d="M37 25h1v1h-1z"/>
<path fill="#174b37" d="M35 23h1v1h-1z"/>
<path fill="#174d39" d="M23 34h1v1h-1z"/>
<path fill="#174e39" d="M14 27h1v1h-1z"/>
<path fill="#174e3a" d="M9 33h1v1h-1z"/>
<path fill="#184f3a" d="M34 13h1v1h-1z"/>
<path fill="#18503b" d="M29 18h1v1h-1z"/>
<path fill="#18513c" d="M23 12h1v1h-1z"/>
<path fill="#19523d" d="M15 29h1v1h-1z"/>
<path fill="#19533d" d="M9 18h1v1h-1z"/>
<path fill="#19543f" d="M13 19h1v1h-1z"/>
<path fill="#19553e" d="M10 20h1v1h-1z"/>
<path fill="#19553f" d="M15 33h1v1h-1z"/>
<path fill="#1a5841" d="M38 29h1v1h-1z"/>
<path fill="#1a5a43" d="M32 24h1v1h-1z"/>
<path fill="#1b5941" d="M11 23h1v1h-1z"/>
<path fill="#1b5a43" d="M42 18h1v1h-1z"/>
<path fill="#1c5d45" d="M33 28h1v1h-1z"/>
<path fill="#1c5f46" d="M28 22h1v1h-1z"/>
<path fill="#1c5f47" d="M41 23h1v1h-1z"/>
<path fill="#1c6047" d="M8 17h1v1h-1z"/>
<path fill="#1d6249" d="M18 14h1v1h-1z"/>
<path fill="#1e6349" d="M34 29h1v1h-1z"/>
<path fill="#1e644a" d="M13 25h1v1h-1z"/>
<path fill="#1f674c" d="M31 27h1v1h-1z"/>
<path fill="#1f6a4e" d="M39 20h1v1h-1z"/>
<path fill="#206a4f" d="M40 24h1v1h-1z"/>
<path fill="#206b4f" d="M12 23h1v1h-1z"/>
<path fill="#206c4f" d="M43 15h1v1h-1z"/>
<path fill="#206c50" d="M33 26h1v1h-1z"/>
<path fill="#216d51" d="M40 17h1v1h-1z"/>
<path fill="#216e51" d="M18 28h1v1h-1z"/>
<path fill="#227356" d="M36 26h1v1h-1z"/>
<path fill="#237356" d="M7 19h1v1h-1z"/>
<path fill="#237557" d="M10 14h1v1h-1z"/>
<path fill="#237658" d="M4 25h1v1h-1z"/>
<path fill="#237758" d="M21 22h1v1h-1z"/>
<path fill="#247758" d="M24 12h1v1h-1z"/>
<path fill="#247859" d="M22 33h1v1h-1z"/>
<path fill="#247959" d="M32 15h1v1h-1z"/>
<path fill="#257d5d" d="M30 22h1v1h-1z"/>
<path fill="#267d5d" d="M37 26h1v1h-1z"/>
<path fill="#26815f" d="M6 19h1v1h-1z"/>
<path fill="#278260" d="M10 24h1v1h-1z"/>
<path fill="#278361" d="M4 21h1v1h-1z"/>
<path fill="#288562" d="M16 25h1v1h-1z"/>
<path fill="#288563" d="M14 31h1v1h-1z"/>
<path fill="#288664" d="M30 21h1v1h-1z"/>
<path fill="#288764" d="M31 24h1v1h-1z"/>
<path fill="#288864" d="M33 12h1v1h-1z"/>
<path fill="#298663" d="M41 20h1v1h-1z"/>
<path fill="#298965" d="M12 25h1v1h-1z"/>
<path fill="#298a67" d="M33 31h1v1h-1z"/>
<path fill="#298b67" d="M34 21h1v1h-1z"/>
<path fill="#2a8b67" d="M38 23h1v1h-1z"/>
<path fill="#2a8d68" d="M4 24h1v1h-1z"/>
<path fill="#2b8e69" d="M13 27h1v1h-1z"/>
<path fill="#2b8e6a" d="M16 34h1v1h-1z"/>
<path fill="#2b8f6a" d="M37 31h1v1h-1z"/>
<path fill="#2b906b" d="M28 19h1v1h-1z"/>
<path fill="#2c906b" d="M3 33h1v1h-1z"/>
<path fill="#2c916b" d="M13 29h1v1h-1z"/>
<path fill="#2c916c" d="M18 12h1v1h-1z"/>
<path fill="#2c926c" d="M4 32h1v1h-1z"/>
<path fill="#2c936d" d="M34 28h1v1h-1z"/>
<path fill="#2c946d" d="M7 12h1v1h-1z"/>
<path fill="#2c946e" d="M4 12h1v1h-1z"/>
<path fill="#2d956e" d="M30 18h1v1h-1z"/>
<path fill="#2d956f" d="M7 33h1v1h-1z"/>
<path fill="#2d976f" d="M4 14h1v1h-1z"/>
<path fill="#2d9770" d="M21 12h1v1h-1z"/>
<path fill="#2d9870" d="M18 22h1v1h-1z"/>
<path fill="#2e9971" d="M8 18h1v1h-1z"/>
<path fill="#2e9a71" d="M33 18h1v1h-1z"/>
<path fill="#2e9b72" d="M26 12h1v1h-1z"/>
<path fill="#2f9c74" d="M33 13h1v1h-1z"/>
<path fill="#2f9d74" d="M39 13h1v1h-1z"/>
<path fill="#2f9e74" d="M35 24h1v1h-1z"/>
<path fill="#309e75" d="M10 19h1v1h-1z"/>
<path fill="#30a076" d="M40 18h1v1h-1z"/>
<path fill="#30a077" d="M6 32h1v1h-1z"/>
<path fill="#31a177" d="M20 12h1v1h-1z"/>
<path fill="#31a278" d="M41 14h1v1h-1z"/>
<path fill="#31a579" d="M43 12h1v1h-1z"/>
<path fill="#31a67a" d="M13 20h1v1h-1z"/>
<path fill="#33a97e" d="M32 23h1v1h-1z"/>
<path fill="#33aa7e" d="M3 13h1v1h-1z"/>
<path fill="#33ab7e" d="M44 12h1v1h-1z"/>
<path fill="#33ad80" d="M35 35h1v1h-1z"/>
<path fill="#34af81" d="M29 16h1v1h-1z"/>
<path fill="#34af82" d="M38 28h1v1h-1z"/>
<path fill="#35af82" d="M19 12h1v1h-1z"/>
<path fill="#35b082" d="M30 23h1v1h-1z"/>
<path fill="#35b183" d="M45 12h1v1h-1z"/>
<path fill="#35b284" d="M14 26h1v1h-1z"/>
<path fill="#36b284" d="M13 24h1v1h-1z"/>
<path fill="#36b384" d="M6 12h1v1h-1z"/>
<path fill="#36b486" d="M32 13h1v1h-1z"/>
<path fill="#36b586" d="M22 34h1v1h-1z"/>
<path fill="#37b586" d="M41 15h1v1h-1z"/>
<path fill="#37b787" d="M8 12h1v1h-1z"/>
<path fill="#37b888" d="M28 12h1v1h-1z"/>
<path fill="#37b889" d="M30 24h1v1h-1z"/>
<path fill="#37b988" d="M43 14h1v1h-1z"/>
<path fill="#37ba8a" d="M12 27h1v1h-1z"/>
<path fill="#38ba89" d="M42 12h1v1h-1z"/>
<path fill="#38ba8a" d="M39 21h1v1h-1z"/>
<path fill="#38bb8a" d="M25 12h1v1h-1z"/>
<path fill="#38bb8b" d="M7 34h1v1h-1z"/>
<path fill="#38bd8c" d="M32 27h1v1h-1z"/>
<path fill="#39bc8b" d="M17 12h1v1h-1z"/>
<path fill="#39be8c" d="M34 22h1v1h-1z"/>
<path fill="#39bf8d" d="M21 13h1v1h-1z"/>
<path fill="#3abf8e" d="M9 13h1v1h-1z"/>
<path fill="#3ac18e" d="M18 23h1v1h-1z"/>
<path fill="#3ac28f" d="M10 15h1v1h-1z"/>
<path fill="#3ac290" d="M36 33h1v1h-1z"/>
<path fill="#3bc391" d="M33 19h1v1h-1z"/>
<path fill="#3bc491" d="M21 33h1v1h-1z"/>
<path fill="#3bc492" d="M32 16h1v1h-1z"/>
<path fill="#3bc693" d="M44 13h1v1h-1z"/>
<path fill="#3cc793" d="M20 27h1v1h-1z"/>
<path fill="#3cca96" d="M20 24h1v1h-1z"/>
<path fill="#3dc995" d="M10 23h1v1h-1z"/>
<path fill="#3dca96" d="M14 30h1v1h-1z"/>
<path fill="#3dcc97" d="M41 19h1v1h-1z"/>
<path fill="#3dcd98" d="M33 30h1v1h-1z"/>
<path fill="#3ece99" d="M16 26h1v1h-1z"/>
<path fill="#3ecf9a" d="M29 22h1v1h-1z"/>
<path fill="#3fd09a" d="M20 28h1v1h-1z"/>
<path fill="#3fd19b" d="M18 29h1v1h-1z"/>
<path fill="#3fd29b" d="M12 19h1v1h-1z"/>
<path fill="#3fd39c" d="M8 19h1v1h-1z"/>
<path fill="#3fd49d" d="M19 24h1v1h-1z"/>
<path fill="#40d69e" d="M35 25h1v1h-1z"/>
<path fill="#40d69f" d="M11 17h1v1h-1z"/>
<path fill="#41d9a0" d="M26 13h1v1h-1z"/>
<path fill="#42daa1" d="M19 14h1v1h-1z"/>
</svg>